<?xml version="1.0" encoding="UTF-8" standalone="no"?>
<svg
   xmlns:dc="http://purl.org/dc/elements/1.1/"
   xmlns:cc="http://creativecommons.org/ns#"
   xmlns:rdf="http://www.w3.org/1999/02/22-rdf-syntax-ns#"
   xmlns:svg="http://www.w3.org/2000/svg"
   xmlns="http://www.w3.org/2000/svg"
   xmlns:sodipodi="http://sodipodi.sourceforge.net/DTD/sodipodi-0.dtd"
   xmlns:inkscape="http://www.inkscape.org/namespaces/inkscape"
   version="1.1"
   id="svg2"
   xml:space="preserve"
   width="666.66669"
   height="666.66669"
   viewBox="0 0 666.66669 666.66669"
   sodipodi:docname="3828545.ai"><metadata
     id="metadata8"><rdf:RDF><cc:Work
         rdf:about=""><dc:format>image/svg+xml</dc:format><dc:type
           rdf:resource="http://purl.org/dc/dcmitype/StillImage" /></cc:Work></rdf:RDF></metadata><defs
     id="defs6"><clipPath
       clipPathUnits="userSpaceOnUse"
       id="clipPath32"><path
         d="M 0,500 H 500 V 0 H 0 Z"
         id="path30" /></clipPath><clipPath
       clipPathUnits="userSpaceOnUse"
       id="clipPath154"><path
         d="M 0,500 H 500 V 0 H 0 Z"
         id="path152" /></clipPath><clipPath
       clipPathUnits="userSpaceOnUse"
       id="clipPath166"><path
         d="M 83.889,452.6 H 436.56 V 151.185 H 83.889 Z"
         id="path164" /></clipPath><clipPath
       clipPathUnits="userSpaceOnUse"
       id="clipPath182"><path
         d="M 0,500 H 500 V 0 H 0 Z"
         id="path180" /></clipPath><clipPath
       clipPathUnits="userSpaceOnUse"
       id="clipPath194"><path
         d="M 0,500 H 500 V 0 H 0 Z"
         id="path192" /></clipPath><clipPath
       clipPathUnits="userSpaceOnUse"
       id="clipPath286"><path
         d="M 0,500 H 500 V 0 H 0 Z"
         id="path284" /></clipPath><clipPath
       clipPathUnits="userSpaceOnUse"
       id="clipPath310"><path
         d="m 144.598,332.587 h 2.262 v -60.106 h -2.262 z"
         id="path308" /></clipPath><clipPath
       clipPathUnits="userSpaceOnUse"
       id="clipPath330"><path
         d="m 146.295,347.561 h 6.247 v -13.333 h -6.247 z"
         id="path328" /></clipPath><clipPath
       clipPathUnits="userSpaceOnUse"
       id="clipPath350"><path
         d="m 113.167,327.634 h 6.63 v -18.23 h -6.63 z"
         id="path348" /></clipPath><clipPath
       clipPathUnits="userSpaceOnUse"
       id="clipPath370"><path
         d="m 137.868,361.9 h 8.731 v -8.639 h -8.731 z"
         id="path368" /></clipPath><clipPath
       clipPathUnits="userSpaceOnUse"
       id="clipPath434"><path
         d="m 134.021,258.497 h 25.437 v -19.108 h -25.437 z"
         id="path432" /></clipPath><clipPath
       clipPathUnits="userSpaceOnUse"
       id="clipPath478"><path
         d="m 115.456,275.72 h 52.765 v -8.619 h -52.765 z"
         id="path476" /></clipPath><clipPath
       clipPathUnits="userSpaceOnUse"
       id="clipPath518"><path
         d="m 124.23,390.769 h 27.141 V 379.973 H 124.23 Z"
         id="path516" /></clipPath><clipPath
       clipPathUnits="userSpaceOnUse"
       id="clipPath546"><path
         d="m 137.508,377.568 h 18.159 v -9.862 h -18.159 z"
         id="path544" /></clipPath><clipPath
       clipPathUnits="userSpaceOnUse"
       id="clipPath578"><path
         d="M 87.4026,324.124 H 209.206 V 248.933 H 87.4026 Z"
         id="path576" /></clipPath><clipPath
       clipPathUnits="userSpaceOnUse"
       id="clipPath610"><path
         d="m 130.44,347.019 h 10.544 v -13.92 H 130.44 Z"
         id="path608" /></clipPath><clipPath
       clipPathUnits="userSpaceOnUse"
       id="clipPath654"><path
         d="M 0,500 H 500 V 0 H 0 Z"
         id="path652" /></clipPath><clipPath
       clipPathUnits="userSpaceOnUse"
       id="clipPath662"><path
         d="m 215.699,233.717 h 45.22 V 82.5424 h -45.22 z"
         id="path660" /></clipPath><clipPath
       clipPathUnits="userSpaceOnUse"
       id="clipPath686"><path
         d="M 0,500 H 500 V 0 H 0 Z"
         id="path684" /></clipPath><clipPath
       clipPathUnits="userSpaceOnUse"
       id="clipPath694"><path
         d="m 313.347,233.717 h 45.221 V 82.5424 h -45.221 z"
         id="path692" /></clipPath><clipPath
       clipPathUnits="userSpaceOnUse"
       id="clipPath742"><path
         d="M 0,500 H 500 V 0 H 0 Z"
         id="path740" /></clipPath><clipPath
       clipPathUnits="userSpaceOnUse"
       id="clipPath750"><path
         d="m 334.895,218.323 h 34.091 v -62.779 h -34.091 z"
         id="path748" /></clipPath><clipPath
       clipPathUnits="userSpaceOnUse"
       id="clipPath774"><path
         d="M 0,500 H 500 V 0 H 0 Z"
         id="path772" /></clipPath><clipPath
       clipPathUnits="userSpaceOnUse"
       id="clipPath782"><path
         d="m 237.246,218.323 h 34.091 v -62.779 h -34.091 z"
         id="path780" /></clipPath></defs><sodipodi:namedview
     pagecolor="#ffffff"
     bordercolor="#666666"
     borderopacity="1"
     objecttolerance="10"
     gridtolerance="10"
     guidetolerance="10"
     inkscape:pageopacity="0"
     inkscape:pageshadow="2"
     inkscape:window-width="640"
     inkscape:window-height="480"
     id="namedview4" /><g
     id="g10"
     inkscape:groupmode="layer"
     inkscape:label="3828545"
     transform="matrix(1.3333333,0,0,-1.3333333,0,666.66667)"><path
       d="m 0,117.352 h 500 v 0.249 H 0 Z"
       style="fill:#ececec;fill-opacity:1;fill-rule:nonzero;stroke:none"
       id="path12" /><path
       d="m 52.459,107.828 h 33.122 v 0.25 H 52.459 Z"
       style="fill:#ececec;fill-opacity:1;fill-rule:nonzero;stroke:none"
       id="path14" /><path
       d="m 145.333,110.542 h 34.501 v 0.25 h -34.501 z"
       style="fill:#ececec;fill-opacity:1;fill-rule:nonzero;stroke:none"
       id="path16" /><path
       d="m 76.082,103 h 55.417 v 0.25 H 76.082 Z"
       style="fill:#ececec;fill-opacity:1;fill-rule:nonzero;stroke:none"
       id="path18" /><path
       d="m 405.64,102.083 h 43.194 v 0.249 H 405.64 Z"
       style="fill:#ececec;fill-opacity:1;fill-rule:nonzero;stroke:none"
       id="path20" /><path
       d="m 370.43,108.333 h 22.903 v 0.25 H 370.43 Z"
       style="fill:#ececec;fill-opacity:1;fill-rule:nonzero;stroke:none"
       id="path22" /><path
       d="m 195.633,104.319 h 93.676 v 0.25 h -93.676 z"
       style="fill:#ececec;fill-opacity:1;fill-rule:nonzero;stroke:none"
       id="path24" /><g
       id="g26"><g
         id="g28"
         clip-path="url(#clipPath32)"><g
           id="g34"
           transform="translate(43.915,444.7979)"><path
             d="M 0,0 C -3.01,0 -5.458,-2.449 -5.458,-5.458 V -276.89 c 0,-3.009 2.448,-5.458 5.458,-5.458 h 193.099 c 3.008,0 5.457,2.449 5.457,5.458 V -5.458 c 0,3.009 -2.449,5.458 -5.457,5.458 z M 193.099,-282.598 H 0 c -3.147,0 -5.708,2.561 -5.708,5.708 V -5.458 c 0,3.146 2.561,5.708 5.708,5.708 h 193.099 c 3.146,0 5.707,-2.562 5.707,-5.708 V -276.89 c 0,-3.147 -2.561,-5.708 -5.707,-5.708"
             style="fill:#ececec;fill-opacity:1;fill-rule:nonzero;stroke:none"
             id="path36" /></g><g
           id="g38"
           transform="translate(260.2119,444.7979)"><path
             d="M 0,0 C -3.009,0 -5.457,-2.449 -5.457,-5.458 V -276.89 c 0,-3.009 2.448,-5.458 5.457,-5.458 h 193.099 c 3.009,0 5.458,2.449 5.458,5.458 V -5.458 c 0,3.009 -2.449,5.458 -5.458,5.458 z M 193.099,-282.598 H 0 c -3.146,0 -5.707,2.561 -5.707,5.708 V -5.458 c 0,3.146 2.561,5.708 5.707,5.708 h 193.099 c 3.147,0 5.708,-2.562 5.708,-5.708 V -276.89 c 0,-3.147 -2.561,-5.708 -5.708,-5.708"
             style="fill:#ececec;fill-opacity:1;fill-rule:nonzero;stroke:none"
             id="path40" /></g><path
           d="m 148.597,120.701 h 54.14 v -3.1 h -54.14 z"
           style="fill:#e1e1e1;fill-opacity:1;fill-rule:nonzero;stroke:none"
           id="path42" /><g
           id="g44"
           transform="translate(170.802,188.4082)"><path
             d="M 0,0 -14.961,-67.707 H 24.691 L 9.73,0 C 8.579,5.21 1.151,5.21 0,0"
             style="fill:#e1e1e1;fill-opacity:1;fill-rule:nonzero;stroke:none"
             id="path46" /></g><g
           id="g48"
           transform="translate(183.5061,174.9658)"><path
             d="m 0,0 h -15.678 l -3.79,-17.157 H 3.79 Z"
             style="fill:#f5f5f5;fill-opacity:1;fill-rule:nonzero;stroke:none"
             id="path50" /></g><g
           id="g52"
           transform="translate(187.9592,154.7891)"><path
             d="m 0,0 h -24.584 l -1.922,-8.686 H 1.922 Z"
             style="fill:#f5f5f5;fill-opacity:1;fill-rule:nonzero;stroke:none"
             id="path54" /></g><g
           id="g56"
           transform="translate(72.5166,117.6016)"><path
             d="M 0,0 H 8.047 L 31.723,132.398 H 23.676 Z"
             style="fill:#e1e1e1;fill-opacity:1;fill-rule:nonzero;stroke:none"
             id="path58" /></g><g
           id="g60"
           transform="translate(283.155,117.6016)"><path
             d="M 0,0 H 8.047 L 31.723,132.398 H 23.676 Z"
             style="fill:#e1e1e1;fill-opacity:1;fill-rule:nonzero;stroke:none"
             id="path62" /></g><path
           d="M 338.554,195.438 H 72.517 v 48.116 h 266.037 z"
           style="fill:#ececec;fill-opacity:1;fill-rule:nonzero;stroke:none"
           id="path64" /><g
           id="g66"
           transform="translate(101.3601,197.5615)"><path
             d="m 0,0 h -27.579 l 15.298,43.871 h 27.578 z"
             style="fill:#fafafa;fill-opacity:1;fill-rule:nonzero;stroke:none"
             id="path68" /></g><g
           id="g70"
           transform="translate(156.5181,197.5615)"><path
             d="m 0,0 h -27.579 l 15.297,43.871 h 27.579 z"
             style="fill:#fafafa;fill-opacity:1;fill-rule:nonzero;stroke:none"
             id="path72" /></g><g
           id="g74"
           transform="translate(211.676,197.5615)"><path
             d="m 0,0 h -27.579 l 15.297,43.871 h 27.579 z"
             style="fill:#fafafa;fill-opacity:1;fill-rule:nonzero;stroke:none"
             id="path76" /></g><g
           id="g78"
           transform="translate(266.834,197.5615)"><path
             d="m 0,0 h -27.579 l 15.297,43.871 h 27.579 z"
             style="fill:#fafafa;fill-opacity:1;fill-rule:nonzero;stroke:none"
             id="path80" /></g><g
           id="g82"
           transform="translate(321.9919,197.5615)"><path
             d="m 0,0 h -27.579 l 15.297,43.871 h 27.579 z"
             style="fill:#fafafa;fill-opacity:1;fill-rule:nonzero;stroke:none"
             id="path84" /></g><g
           id="g86"
           transform="translate(127.9153,117.6016)"><path
             d="m 0,0 h -8.047 l -23.676,132.398 h 8.047 z"
             style="fill:#e1e1e1;fill-opacity:1;fill-rule:nonzero;stroke:none"
             id="path88" /></g><g
           id="g90"
           transform="translate(338.554,117.6016)"><path
             d="m 0,0 h -8.047 l -23.676,132.398 h 8.047 z"
             style="fill:#e1e1e1;fill-opacity:1;fill-rule:nonzero;stroke:none"
             id="path92" /></g><path
           d="m 376,121.667 h 71 v -4.065 h -71 z"
           style="fill:#e1e1e1;fill-opacity:1;fill-rule:nonzero;stroke:none"
           id="path94" /><g
           id="g96"
           transform="translate(404.6531,208.3467)"><path
             d="m 0,0 -19.153,-86.68 h 52 L 13.694,0 C 12.074,7.332 1.62,7.332 0,0"
             style="fill:#e1e1e1;fill-opacity:1;fill-rule:nonzero;stroke:none"
             id="path98" /></g><g
           id="g100"
           transform="translate(421.78,192.8301)"><path
             d="m 0,0 h -20.56 l -4.97,-22.5 h 30.5 z"
             style="fill:#f5f5f5;fill-opacity:1;fill-rule:nonzero;stroke:none"
             id="path102" /></g><g
           id="g104"
           transform="translate(427.6201,166.3701)"><path
             d="m 0,0 h -32.24 l -2.52,-11.39 H 2.52 Z"
             style="fill:#f5f5f5;fill-opacity:1;fill-rule:nonzero;stroke:none"
             id="path106" /></g><g
           id="g108"
           transform="translate(463,258.1006)"><path
             d="m 0,0 v -29.301 c 0,-1.964 -1.908,-3.36 -3.78,-2.767 l -422.968,134.045 c -1.207,0.382 -2.026,1.502 -2.026,2.767 v 29.301 c 0,1.964 1.908,3.36 3.78,2.767 L -2.026,2.768 C -0.82,2.385 0,1.266 0,0"
             style="fill:#ececec;fill-opacity:1;fill-rule:nonzero;stroke:none"
             id="path110" /></g><g
           id="g112"
           transform="translate(429.7141,237.6172)"><path
             d="M 0,0 23.286,-7.38 10.37,27.638 -12.916,35.018 Z"
             style="fill:#fafafa;fill-opacity:1;fill-rule:nonzero;stroke:none"
             id="path114" /></g><g
           id="g116"
           transform="translate(383.1426,252.376)"><path
             d="M 0,0 23.286,-7.38 10.37,27.638 -12.916,35.018 Z"
             style="fill:#fafafa;fill-opacity:1;fill-rule:nonzero;stroke:none"
             id="path118" /></g><g
           id="g120"
           transform="translate(336.571,267.1357)"><path
             d="M 0,0 23.286,-7.38 10.37,27.638 -12.916,35.017 Z"
             style="fill:#fafafa;fill-opacity:1;fill-rule:nonzero;stroke:none"
             id="path122" /></g><g
           id="g124"
           transform="translate(289.9995,281.8945)"><path
             d="M 0,0 23.286,-7.38 10.37,27.638 -12.916,35.018 Z"
             style="fill:#fafafa;fill-opacity:1;fill-rule:nonzero;stroke:none"
             id="path126" /></g><g
           id="g128"
           transform="translate(243.4277,296.6533)"><path
             d="M 0,0 23.286,-7.379 10.37,27.639 -12.916,35.018 Z"
             style="fill:#fafafa;fill-opacity:1;fill-rule:nonzero;stroke:none"
             id="path130" /></g><g
           id="g132"
           transform="translate(196.8562,311.4131)"><path
             d="M 0,0 23.286,-7.38 10.37,27.638 -12.916,35.018 Z"
             style="fill:#fafafa;fill-opacity:1;fill-rule:nonzero;stroke:none"
             id="path134" /></g><g
           id="g136"
           transform="translate(150.2847,326.1719)"><path
             d="M 0,0 23.286,-7.379 10.37,27.639 -12.916,35.018 Z"
             style="fill:#fafafa;fill-opacity:1;fill-rule:nonzero;stroke:none"
             id="path138" /></g><g
           id="g140"
           transform="translate(103.7131,340.9316)"><path
             d="M 0,0 23.286,-7.38 10.37,27.638 -12.916,35.018 Z"
             style="fill:#fafafa;fill-opacity:1;fill-rule:nonzero;stroke:none"
             id="path142" /></g><g
           id="g144"
           transform="translate(57.1416,355.6904)"><path
             d="M 0,0 23.286,-7.379 10.37,27.638 -12.916,35.018 Z"
             style="fill:#fafafa;fill-opacity:1;fill-rule:nonzero;stroke:none"
             id="path146" /></g></g></g><g
       id="g148"><g
         id="g150"
         clip-path="url(#clipPath154)"><g
           id="g156"
           transform="translate(387.6587,432.0225)"><path
             d="m 0,0 c -3.487,2.296 -7.107,4.412 -10.842,6.33 -32.145,16.512 -76.408,20.427 -107.294,2.329 -18.395,-10.779 -26.253,-31.588 -39.934,-47.241 -17.211,-19.691 -44.267,-30.901 -68.255,-42.033 -32.395,-15.033 -61.503,-31.863 -72.876,-65.218 -9.455,-27.733 -4.627,-60.546 18.158,-82.646 21.674,-21.023 50.491,-36.796 79.522,-46.904 24.983,-8.697 48.016,-8.203 66.541,10.388 12.098,12.141 19.043,27.868 26.488,42.962 8.418,17.066 19.377,38.368 38.367,47.055 18.12,8.29 41.293,5.181 60.544,10.525 31.8,8.826 54.378,37.338 57.923,68.112 C 52.552,-59.79 32.678,-21.511 0,0"
             style="fill:#007cff;fill-opacity:1;fill-rule:nonzero;stroke:none"
             id="path158" /></g><g
           id="g160"><g
             id="g162" /><g
             id="g174"><g
               clip-path="url(#clipPath166)"
               opacity="0.899994"
               id="g172"><g
                 transform="translate(387.6587,432.0225)"
                 id="g170"><path
                   d="m 0,0 c -3.487,2.296 -7.107,4.412 -10.842,6.33 -32.145,16.512 -76.408,20.427 -107.294,2.329 -18.395,-10.779 -26.253,-31.588 -39.934,-47.241 -17.211,-19.691 -44.267,-30.901 -68.255,-42.033 -32.395,-15.033 -61.503,-31.863 -72.876,-65.218 -9.455,-27.733 -4.627,-60.546 18.158,-82.646 21.674,-21.023 50.491,-36.796 79.522,-46.904 24.983,-8.697 48.016,-8.203 66.541,10.388 12.098,12.141 19.043,27.868 26.488,42.962 8.418,17.066 19.377,38.368 38.367,47.055 18.12,8.29 41.293,5.181 60.544,10.525 31.8,8.826 54.378,37.338 57.923,68.112 C 52.552,-59.79 32.678,-21.511 0,0"
                   style="fill:#ffffff;fill-opacity:1;fill-rule:nonzero;stroke:none"
                   id="path168" /></g></g></g></g></g></g><g
       id="g176"><g
         id="g178"
         clip-path="url(#clipPath182)"><g
           id="g184"
           transform="translate(443.8894,83.7617)"><path
             d="m 0,0 c 0,-6.254 -86.807,-11.323 -193.889,-11.323 -107.082,0 -193.889,5.069 -193.889,11.323 0,6.254 86.807,11.323 193.889,11.323 C -86.807,11.323 0,6.254 0,0"
             style="fill:#f5f5f5;fill-opacity:1;fill-rule:nonzero;stroke:none"
             id="path186" /></g></g></g><g
       id="g188"><g
         id="g190"
         clip-path="url(#clipPath194)"><g
           id="g196"
           transform="translate(326.4702,92.4277)"><path
             d="m 0,0 h -11.532 v 347.452 c 0,1.875 11.532,1.875 11.532,0 z"
             style="fill:#1a2e35;fill-opacity:1;fill-rule:nonzero;stroke:none"
             id="path198" /></g><g
           id="g200"
           transform="translate(326.4702,309.4033)"><path
             d="M 0,0 -11.532,-2.323 V 13.626 H 0 Z"
             style="fill:#000000;fill-opacity:1;fill-rule:nonzero;stroke:none"
             id="path202" /></g><g
           id="g204"
           transform="translate(397.7295,313.4023)"><path
             d="m 0,0 -161.798,12.033 c -6.581,0.489 -11.566,6.276 -11.077,12.858 l 6.758,90.859 c 0.49,6.582 6.275,11.566 12.857,11.077 L 8.538,114.793 c 6.582,-0.489 11.566,-6.275 11.077,-12.856 L 12.857,11.076 C 12.367,4.495 6.582,-0.49 0,0"
             style="fill:#ffffff;fill-opacity:1;fill-rule:nonzero;stroke:none"
             id="path206" /></g><g
           id="g208"
           transform="translate(243.5732,438.7627)"><path
             d="m 0,0 c -2.504,0 -4.907,-0.893 -6.838,-2.557 -2.132,-1.837 -3.42,-4.38 -3.626,-7.165 l -6.758,-90.859 c -0.429,-5.774 3.918,-10.821 9.692,-11.25 l 161.798,-12.033 c 2.784,-0.206 5.491,0.69 7.623,2.526 2.131,1.837 3.42,4.382 3.626,7.165 l 6.758,90.861 c 0.429,5.773 -3.919,10.82 -9.692,11.249 L 0.785,-0.029 C 0.523,-0.01 0.261,0 0,0 m 155.059,-126.894 c -0.337,0 -0.675,0.012 -1.014,0.038 l -161.797,12.033 c -3.583,0.266 -6.856,1.922 -9.216,4.661 -2.36,2.739 -3.512,6.221 -3.246,9.804 l 6.757,90.859 c 0.267,3.583 1.922,6.855 4.661,9.216 2.739,2.359 6.22,3.518 9.804,3.246 L 162.805,-9.071 c 3.583,-0.267 6.856,-1.922 9.216,-4.66 2.359,-2.74 3.512,-6.221 3.246,-9.804 l -6.758,-90.861 c -0.266,-3.582 -1.922,-6.855 -4.66,-9.214 -2.48,-2.137 -5.569,-3.284 -8.79,-3.284"
             style="fill:#007cff;fill-opacity:1;fill-rule:nonzero;stroke:none"
             id="path210" /></g><g
           id="g212"
           transform="translate(288.0889,400.6104)"><path
             d="M 0,0 0.94,12.639 -10.741,0.799 Z m -0.644,-8.656 -20.327,1.511 0.682,9.177 22.124,22.651 9.726,-0.724 -1.836,-24.683 5.041,-0.375 -0.644,-8.656 -5.041,0.375 -0.558,-7.507 -9.725,0.724 z"
             style="fill:#007cff;fill-opacity:1;fill-rule:nonzero;stroke:none"
             id="path214" /></g><g
           id="g216"
           transform="translate(317.7031,402.4854)"><path
             d="m 0,0 c -0.38,-5.114 -0.188,-8.642 0.577,-10.581 0.764,-1.939 2.005,-2.972 3.722,-3.1 1.132,-0.084 2.143,0.241 3.034,0.974 0.889,0.731 1.594,1.941 2.115,3.629 0.52,1.687 0.916,4.349 1.186,7.983 0.396,5.333 0.212,8.95 -0.556,10.853 C 9.31,11.661 8.022,12.679 6.214,12.813 4.369,12.951 2.967,12.114 2.006,10.304 1.045,8.493 0.376,5.058 0,0 m -11.066,0.85 c 0.568,7.633 2.339,12.874 5.315,15.718 2.975,2.847 7.275,4.06 12.901,3.642 2.703,-0.201 4.897,-0.7 6.582,-1.495 1.686,-0.796 3.037,-1.768 4.053,-2.918 1.017,-1.15 1.796,-2.338 2.339,-3.563 0.542,-1.225 0.947,-2.636 1.213,-4.235 0.526,-3.053 0.668,-6.203 0.427,-9.453 -0.542,-7.287 -2.172,-12.528 -4.889,-15.724 -2.716,-3.196 -7.088,-4.568 -13.115,-4.12 -3.379,0.251 -6.07,0.992 -8.072,2.225 -2,1.232 -3.592,2.939 -4.769,5.121 -0.859,1.552 -1.461,3.63 -1.809,6.236 -0.348,2.605 -0.407,5.46 -0.176,8.566"
             style="fill:#007cff;fill-opacity:1;fill-rule:nonzero;stroke:none"
             id="path218" /></g><g
           id="g220"
           transform="translate(355.4976,408.0469)"><path
             d="m 0,0 -10.407,2.676 c 1.127,3.295 3.004,5.744 5.629,7.349 2.627,1.605 6.222,2.237 10.788,1.897 5.241,-0.39 8.958,-1.65 11.152,-3.776 2.191,-2.129 3.178,-4.672 2.958,-7.63 -0.129,-1.737 -0.721,-3.272 -1.776,-4.607 -1.054,-1.336 -2.579,-2.463 -4.575,-3.379 1.523,-0.499 2.678,-1.034 3.461,-1.606 1.272,-0.921 2.228,-2.08 2.868,-3.479 0.64,-1.396 0.89,-3.026 0.752,-4.889 -0.174,-2.338 -0.953,-4.535 -2.335,-6.588 -1.384,-2.056 -3.269,-3.577 -5.657,-4.567 -2.387,-0.988 -5.453,-1.342 -9.197,-1.064 -3.653,0.271 -6.501,0.915 -8.547,1.93 -2.046,1.015 -3.688,2.399 -4.926,4.154 -1.237,1.754 -2.128,3.909 -2.672,6.465 l 11.259,0.65 c 0.272,-2.278 0.836,-3.887 1.694,-4.822 0.857,-0.937 1.999,-1.457 3.423,-1.563 1.498,-0.111 2.785,0.344 3.862,1.366 1.077,1.021 1.684,2.445 1.819,4.272 0.139,1.861 -0.234,3.341 -1.116,4.435 -0.883,1.093 -2.146,1.702 -3.79,1.824 -0.876,0.065 -2.098,-0.064 -3.665,-0.388 L 2.17,-3.411 C 2.784,-3.549 3.265,-3.63 3.612,-3.656 5.073,-3.765 6.327,-3.39 7.373,-2.53 8.419,-1.673 8.991,-0.604 9.085,0.675 9.176,1.898 8.883,2.902 8.208,3.688 7.531,4.472 6.554,4.913 5.276,5.008 3.961,5.105 2.863,4.787 1.981,4.054 1.101,3.321 0.44,1.97 0,0"
             style="fill:#007cff;fill-opacity:1;fill-rule:nonzero;stroke:none"
             id="path222" /></g><g
           id="g224"
           transform="translate(272.0703,376.1875)"><path
             d="M 0,0 15.52,-1.154 15.222,-5.156 5.506,-4.434 5.285,-7.412 14.297,-8.083 14.013,-11.905 5,-11.234 4.726,-14.93 l 9.997,-0.744 -0.315,-4.244 -15.802,1.176 z"
             style="fill:#007cff;fill-opacity:1;fill-rule:nonzero;stroke:none"
             id="path226" /></g><g
           id="g228"
           transform="translate(296.3198,366.748)"><path
             d="M 0,0 2.441,-0.182 C 2.706,-0.201 3.224,-0.155 3.995,-0.04 4.383,0.008 4.711,0.181 4.978,0.477 5.244,0.774 5.393,1.128 5.423,1.537 5.468,2.143 5.311,2.62 4.951,2.974 4.592,3.326 3.883,3.542 2.827,3.62 L 0.283,3.81 Z M -6.646,-10.716 -5.252,8.026 4.4,7.309 C 6.19,7.175 7.546,6.92 8.469,6.542 9.393,6.165 10.113,5.54 10.63,4.666 11.148,3.792 11.363,2.758 11.274,1.565 11.197,0.525 10.908,-0.355 10.409,-1.077 9.909,-1.798 9.254,-2.364 8.443,-2.774 7.926,-3.038 7.23,-3.233 6.354,-3.365 c 0.673,-0.282 1.158,-0.55 1.456,-0.803 0.202,-0.17 0.486,-0.521 0.853,-1.056 0.368,-0.533 0.609,-0.94 0.725,-1.224 l 2.401,-5.639 -6.544,0.486 -2.67,5.958 C 2.238,-4.872 1.924,-4.365 1.634,-4.12 1.238,-3.799 0.776,-3.618 0.248,-3.579 l -0.512,0.038 -0.565,-7.607 z"
             style="fill:#007cff;fill-opacity:1;fill-rule:nonzero;stroke:none"
             id="path230" /></g><g
           id="g232"
           transform="translate(316.6855,365.2334)"><path
             d="M 0,0 2.441,-0.182 C 2.705,-0.201 3.224,-0.155 3.995,-0.04 4.383,0.008 4.711,0.181 4.978,0.477 5.244,0.774 5.393,1.128 5.423,1.537 5.468,2.143 5.311,2.62 4.951,2.974 4.592,3.326 3.883,3.542 2.827,3.62 L 0.283,3.81 Z M -6.646,-10.716 -5.252,8.026 4.399,7.309 C 6.189,7.175 7.546,6.92 8.469,6.542 9.393,6.165 10.113,5.54 10.631,4.666 11.148,3.792 11.363,2.758 11.274,1.565 11.197,0.525 10.908,-0.355 10.409,-1.077 9.909,-1.798 9.254,-2.364 8.443,-2.774 7.926,-3.038 7.23,-3.233 6.354,-3.365 7.027,-3.647 7.512,-3.915 7.81,-4.168 8.012,-4.339 8.296,-4.689 8.663,-5.224 9.031,-5.757 9.271,-6.164 9.388,-6.448 l 2.401,-5.639 -6.544,0.486 -2.67,5.958 C 2.238,-4.872 1.924,-4.365 1.634,-4.12 1.238,-3.799 0.776,-3.618 0.248,-3.579 l -0.512,0.038 -0.565,-7.607 z"
             style="fill:#007cff;fill-opacity:1;fill-rule:nonzero;stroke:none"
             id="path234" /></g><g
           id="g236"
           transform="translate(335.6372,361.998)"><path
             d="m 0,0 c -0.141,-1.893 0.11,-3.278 0.751,-4.157 0.642,-0.879 1.568,-1.364 2.778,-1.453 1.244,-0.093 2.238,0.241 2.98,0.999 0.742,0.758 1.191,2.187 1.347,4.283 C 7.987,1.437 7.727,2.752 7.076,3.619 6.425,4.486 5.49,4.965 4.271,5.056 3.104,5.143 2.135,4.799 1.366,4.024 0.597,3.25 0.142,1.908 0,0 m -5.789,0.456 c 0.227,3.06 1.257,5.378 3.088,6.955 1.831,1.58 4.268,2.255 7.311,2.028 3.119,-0.231 5.461,-1.248 7.023,-3.048 1.564,-1.8 2.233,-4.208 2.008,-7.226 -0.162,-2.191 -0.665,-3.96 -1.506,-5.307 -0.842,-1.346 -1.989,-2.358 -3.44,-3.034 -1.451,-0.677 -3.217,-0.937 -5.296,-0.782 -2.114,0.157 -3.838,0.623 -5.173,1.399 -1.335,0.777 -2.378,1.925 -3.131,3.448 -0.753,1.52 -1.047,3.377 -0.884,5.567"
             style="fill:#007cff;fill-opacity:1;fill-rule:nonzero;stroke:none"
             id="path238" /></g><g
           id="g240"
           transform="translate(358.4136,362.1299)"><path
             d="M 0,0 2.441,-0.182 C 2.706,-0.201 3.224,-0.155 3.995,-0.04 4.384,0.008 4.712,0.181 4.978,0.477 5.244,0.774 5.393,1.128 5.423,1.537 5.468,2.143 5.311,2.62 4.952,2.974 4.592,3.326 3.884,3.542 2.827,3.62 L 0.283,3.81 Z M -6.646,-10.716 -5.252,8.026 4.4,7.309 C 6.19,7.175 7.546,6.92 8.469,6.542 9.393,6.165 10.113,5.54 10.63,4.666 11.148,3.792 11.363,2.758 11.274,1.565 11.197,0.525 10.909,-0.355 10.409,-1.077 9.91,-1.798 9.254,-2.364 8.444,-2.774 7.926,-3.038 7.23,-3.233 6.354,-3.365 c 0.673,-0.282 1.158,-0.55 1.457,-0.803 0.201,-0.171 0.485,-0.521 0.852,-1.056 0.368,-0.533 0.609,-0.94 0.725,-1.224 l 2.401,-5.639 -6.544,0.486 -2.67,5.958 C 2.239,-4.872 1.924,-4.365 1.634,-4.12 1.238,-3.799 0.776,-3.618 0.248,-3.579 l -0.512,0.038 -0.565,-7.607 z"
             style="fill:#007cff;fill-opacity:1;fill-rule:nonzero;stroke:none"
             id="path242" /></g><g
           id="g244"
           transform="translate(252.7505,336.6562)"><path
             d="M 0,0 1.272,17.102 12.809,16.244 12.658,14.227 3.384,14.916 2.991,9.62 11.016,9.023 10.866,7.004 2.84,7.601 2.263,-0.168 Z"
             style="fill:#1a2e35;fill-opacity:1;fill-rule:nonzero;stroke:none"
             id="path246" /></g><g
           id="g248"
           transform="translate(269.4883,343.752)"><path
             d="m 0,0 c -0.153,-2.061 0.28,-3.727 1.3,-4.994 1.02,-1.268 2.366,-1.964 4.038,-2.089 1.703,-0.126 3.149,0.368 4.339,1.483 1.189,1.116 1.866,2.774 2.03,4.975 C 11.81,0.767 11.665,2 11.272,3.073 10.879,4.146 10.25,5.003 9.387,5.642 8.524,6.28 7.527,6.643 6.4,6.727 4.798,6.846 3.379,6.397 2.142,5.383 0.906,4.367 0.191,2.572 0,0 M -2.331,0.208 C -2.119,3.047 -1.192,5.212 0.452,6.705 2.096,8.197 4.123,8.854 6.534,8.674 8.112,8.557 9.507,8.074 10.719,7.225 11.931,6.377 12.818,5.253 13.383,3.854 13.947,2.456 14.166,0.901 14.039,-0.81 13.91,-2.544 13.445,-4.07 12.643,-5.386 11.841,-6.703 10.772,-7.666 9.437,-8.273 8.102,-8.882 6.69,-9.131 5.206,-9.021 c -1.61,0.121 -3.02,0.617 -4.23,1.488 -1.209,0.872 -2.091,2.005 -2.644,3.399 -0.554,1.394 -0.774,2.841 -0.663,4.342"
             style="fill:#1a2e35;fill-opacity:1;fill-rule:nonzero;stroke:none"
             id="path250" /></g><g
           id="g252"
           transform="translate(288.8174,343.5811)"><path
             d="m 0,0 4.865,-0.362 c 1.034,-0.077 1.85,-0.03 2.45,0.139 0.599,0.172 1.068,0.481 1.406,0.929 C 9.06,1.154 9.249,1.654 9.29,2.206 9.35,3.015 9.106,3.702 8.558,4.266 8.009,4.831 7.102,5.16 5.834,5.254 L 0.421,5.657 Z M -2.973,-9.386 -1.701,7.716 5.881,7.151 C 7.405,7.038 8.552,6.798 9.323,6.433 10.093,6.065 10.687,5.477 11.104,4.664 11.52,3.851 11.693,2.974 11.624,2.033 11.533,0.819 11.064,-0.174 10.217,-0.948 9.37,-1.722 8.117,-2.159 6.459,-2.264 7.037,-2.596 7.471,-2.914 7.761,-3.216 8.377,-3.873 8.946,-4.677 9.47,-5.631 l 2.628,-4.876 -2.846,0.212 -1.998,3.726 c -0.585,1.076 -1.071,1.902 -1.458,2.478 -0.388,0.576 -0.742,0.986 -1.065,1.229 -0.322,0.243 -0.654,0.42 -0.998,0.532 -0.253,0.073 -0.67,0.132 -1.254,0.176 l -2.625,0.195 -0.564,-7.595 z"
             style="fill:#1a2e35;fill-opacity:1;fill-rule:nonzero;stroke:none"
             id="path254" /></g><g
           id="g256"
           transform="translate(305.9692,342.668)"><path
             d="M 0,0 3.698,-0.274 C 4.701,-0.35 5.425,-0.336 5.87,-0.236 6.458,-0.107 6.914,0.143 7.234,0.518 7.555,0.894 7.738,1.381 7.783,1.979 7.825,2.546 7.726,3.057 7.486,3.509 7.246,3.961 6.879,4.284 6.386,4.481 5.892,4.679 5.03,4.823 3.802,4.915 L 0.384,5.169 Z M -0.587,-7.897 3.67,-8.214 c 0.731,-0.055 1.246,-0.065 1.546,-0.032 0.528,0.055 0.975,0.179 1.341,0.369 0.366,0.192 0.678,0.487 0.934,0.887 0.257,0.398 0.405,0.872 0.446,1.416 0.047,0.637 -0.075,1.203 -0.367,1.698 -0.291,0.495 -0.72,0.858 -1.285,1.094 -0.565,0.232 -1.392,0.389 -2.481,0.47 L -0.15,-2.018 Z M -3.001,-9.746 -1.729,7.355 4.687,6.878 C 5.994,6.781 7.028,6.529 7.792,6.125 8.556,5.719 9.134,5.141 9.528,4.389 9.921,3.636 10.089,2.867 10.031,2.081 9.977,1.35 9.727,0.677 9.282,0.062 8.838,-0.555 8.2,-1.032 7.37,-1.369 8.381,-1.749 9.138,-2.325 9.64,-3.097 10.142,-3.87 10.355,-4.754 10.281,-5.749 10.222,-6.551 9.998,-7.281 9.608,-7.945 9.218,-8.608 8.761,-9.107 8.235,-9.444 7.709,-9.78 7.065,-10.016 6.3,-10.151 5.535,-10.285 4.609,-10.313 3.52,-10.231 Z"
             style="fill:#1a2e35;fill-opacity:1;fill-rule:nonzero;stroke:none"
             id="path258" /></g><g
           id="g260"
           transform="translate(319.3818,331.7012)"><path
             d="M 0,0 1.272,17.102 3.535,16.933 2.263,-0.169 Z"
             style="fill:#1a2e35;fill-opacity:1;fill-rule:nonzero;stroke:none"
             id="path262" /></g><g
           id="g264"
           transform="translate(328.0474,333.085)"><path
             d="m 0,0 3.651,-0.271 c 1.127,-0.084 2.02,-0.044 2.677,0.119 0.657,0.161 1.19,0.419 1.6,0.771 0.576,0.497 1.048,1.188 1.415,2.071 0.366,0.883 0.598,1.97 0.695,3.262 0.132,1.788 -0.059,3.186 -0.575,4.19 -0.516,1.003 -1.181,1.7 -1.997,2.089 C 6.876,12.51 5.91,12.699 4.564,12.8 l -3.592,0.266 z m -2.414,-1.849 1.272,17.102 5.892,-0.439 c 1.33,-0.098 2.338,-0.256 3.026,-0.471 0.963,-0.299 1.768,-0.77 2.417,-1.411 0.846,-0.83 1.447,-1.854 1.806,-3.074 C 12.358,8.64 12.481,7.268 12.367,5.744 12.271,4.444 12.034,3.305 11.656,2.324 11.278,1.343 10.827,0.543 10.304,-0.079 9.781,-0.702 9.223,-1.18 8.631,-1.515 8.04,-1.851 7.337,-2.085 6.526,-2.222 5.714,-2.355 4.792,-2.385 3.757,-2.308 Z"
             style="fill:#1a2e35;fill-opacity:1;fill-rule:nonzero;stroke:none"
             id="path266" /></g><g
           id="g268"
           transform="translate(345.2998,331.8018)"><path
             d="m 0,0 3.651,-0.271 c 1.127,-0.084 2.02,-0.044 2.677,0.119 0.657,0.161 1.191,0.419 1.6,0.771 C 8.505,1.116 8.976,1.808 9.343,2.69 9.71,3.573 9.941,4.66 10.038,5.952 10.17,7.74 9.979,9.138 9.463,10.142 8.948,11.145 8.282,11.842 7.466,12.231 6.877,12.51 5.91,12.699 4.564,12.8 l -3.592,0.266 z m -2.413,-1.849 1.272,17.102 5.891,-0.439 c 1.33,-0.098 2.338,-0.256 3.026,-0.471 0.963,-0.299 1.768,-0.77 2.417,-1.411 0.846,-0.83 1.447,-1.854 1.806,-3.074 C 12.358,8.64 12.481,7.268 12.368,5.744 12.271,4.444 12.034,3.305 11.656,2.324 11.278,1.343 10.828,0.543 10.304,-0.079 9.781,-0.702 9.224,-1.18 8.632,-1.515 8.04,-1.851 7.338,-2.085 6.527,-2.222 5.715,-2.355 4.792,-2.385 3.758,-2.308 Z"
             style="fill:#1a2e35;fill-opacity:1;fill-rule:nonzero;stroke:none"
             id="path270" /></g><g
           id="g272"
           transform="translate(360.186,328.666)"><path
             d="M 0,0 1.272,17.102 13.637,16.182 13.486,14.164 3.384,14.916 2.995,9.678 12.456,8.974 12.307,6.967 2.846,7.671 2.413,1.85 12.912,1.068 12.762,-0.949 Z"
             style="fill:#1a2e35;fill-opacity:1;fill-rule:nonzero;stroke:none"
             id="path274" /></g><g
           id="g276"
           transform="translate(376.0508,327.4863)"><path
             d="M 0,0 1.272,17.102 3.593,16.929 11.577,2.834 12.576,16.261 14.745,16.1 13.473,-1.002 11.152,-0.83 3.169,13.277 l -1,-13.438 z"
             style="fill:#1a2e35;fill-opacity:1;fill-rule:nonzero;stroke:none"
             id="path278" /></g></g></g><g
       id="g280"><g
         id="g282"
         clip-path="url(#clipPath286)"><g
           id="g288"
           transform="translate(169.9221,335.1113)"><path
             d="m 0,0 0.33,-1.962 0.38,-2.085 c 0.273,-1.392 0.54,-2.793 0.855,-4.178 0.608,-2.772 1.317,-5.511 2.116,-8.165 0.401,-1.327 0.833,-2.632 1.31,-3.895 0.458,-1.271 0.948,-2.516 1.492,-3.693 1.079,-2.365 2.308,-4.524 3.667,-6.23 l -2.739,1.796 c 0.643,-0.325 1.254,-0.595 2.289,-0.531 1.003,0.047 2.352,0.422 3.733,1.106 1.403,0.663 2.859,1.593 4.297,2.656 0.718,0.534 1.444,1.092 2.146,1.686 0.359,0.291 0.71,0.592 1.056,0.895 0.341,0.286 0.724,0.637 0.991,0.851 l 0.539,0.43 c 1.604,1.282 3.945,1.021 5.227,-0.584 0.91,-1.14 1.04,-2.653 0.467,-3.891 -0.294,-0.632 -0.503,-1.102 -0.769,-1.629 -0.263,-0.507 -0.532,-1.008 -0.814,-1.503 -0.575,-0.979 -1.185,-1.946 -1.864,-2.884 -1.351,-1.878 -2.931,-3.666 -4.861,-5.313 -0.961,-0.825 -2.049,-1.579 -3.234,-2.279 -1.185,-0.701 -2.503,-1.326 -3.979,-1.755 -1.465,-0.439 -3.063,-0.732 -4.733,-0.753 -1.67,-0.025 -3.358,0.251 -4.96,0.714 -0.924,0.267 -1.722,0.76 -2.352,1.4 l -0.386,0.397 c -2.758,2.82 -4.829,5.873 -6.493,8.961 -1.692,3.084 -3.017,6.216 -4.13,9.366 -1.139,3.142 -2.011,6.315 -2.77,9.497 -0.363,1.596 -0.709,3.19 -0.985,4.804 -0.14,0.805 -0.279,1.613 -0.396,2.43 -0.118,0.845 -0.218,1.586 -0.326,2.574 -0.45,4.117 2.521,7.819 6.638,8.27 3.963,0.434 7.543,-2.307 8.205,-6.186 z"
             style="fill:#1a2e35;fill-opacity:1;fill-rule:nonzero;stroke:none"
             id="path290" /></g><g
           id="g292"
           transform="translate(191.6667,313.917)"><path
             d="M 0,0 C -2.111,-0.667 -4.583,-3.111 -3.806,-5.973 -3.028,-8.834 5.528,-11 5.805,-5.834 3.333,-0.917 0,0 0,0"
             style="fill:#ffffff;fill-opacity:1;fill-rule:nonzero;stroke:none"
             id="path294" /></g><g
           id="g296"
           transform="translate(190.5449,311.1279)"><path
             d="m 0,0 0.91,1.39 9.34,2.525 c 0,0 1.362,-5.95 -5.388,-8.217 C 4.384,-4.462 3.858,-4.399 3.41,-4.166 L 0.721,-2.765 C -0.289,-2.237 -0.625,-0.953 0,0"
             style="fill:#ce5b51;fill-opacity:1;fill-rule:nonzero;stroke:none"
             id="path298" /></g><g
           id="g300"
           transform="translate(120.0771,345.2529)"><path
             d="m 0,0 c 11.944,2.162 28.123,2.577 39.852,0.571 5.963,-1.02 10.169,-6.434 9.643,-12.461 -0.673,-7.711 -1.525,-14.519 -1.969,-19.865 0.532,-13.556 -0.624,-36.217 -0.624,-40.954 -10e-4,-0.004 -49.686,-0.703 -49.686,-0.703 -2.213,6.193 -1.488,34.076 -5.368,62.146 C -8.89,-5.927 -5.304,-0.96 0,0"
             style="fill:#1a2e35;fill-opacity:1;fill-rule:nonzero;stroke:none"
             id="path302" /></g><g
           id="g304"><g
             id="g306" /><g
             id="g318"><g
               clip-path="url(#clipPath310)"
               opacity="0.199997"
               id="g316"><g
                 transform="translate(145.5928,272.4814)"
                 id="g314"><path
                   d="m 0,0 -0.992,0.125 c 2.823,22.252 0.026,59.53 -0.003,59.904 l 0.997,0.076 C 0.031,59.73 2.835,22.351 0,0"
                   style="fill:#000000;fill-opacity:1;fill-rule:nonzero;stroke:none"
                   id="path312" /></g></g></g></g><g
           id="g320"
           transform="translate(150.1021,344.6758)"><path
             d="m 0,0 c -1.959,0.532 -0.194,2.551 -0.194,2.551 0,0 8.887,0 15.028,-1.205 0.939,-0.726 -0.072,-1.65 -0.072,-1.65 0,0 -8.946,-1.275 -14.762,0.304"
             style="fill:#007cff;fill-opacity:1;fill-rule:nonzero;stroke:none"
             id="path322" /></g><g
           id="g324"><g
             id="g326" /><g
             id="g338"><g
               clip-path="url(#clipPath330)"
               opacity="0.199997"
               id="g336"><g
                 transform="translate(147.2935,347.5303)"
                 id="g334"><path
                   d="m 0,0 c 0,0 2.947,-5.92 -0.999,-11.302 3.126,-0.022 6.005,-2 6.005,-2 0,0 1.409,5.074 -2.563,12.791 C 2.009,0.218 0,0 0,0"
                   style="fill:#000000;fill-opacity:1;fill-rule:nonzero;stroke:none"
                   id="path332" /></g></g></g></g><g
           id="g340"
           transform="translate(150.4431,344.6611)"><path
             d="m 0,0 c 0.767,-3.611 -5.942,-10.433 -5.942,-10.433 0,0 -11.865,6.22 -12.615,9.79 z"
             style="fill:#007cff;fill-opacity:1;fill-rule:nonzero;stroke:none"
             id="path342" /></g><g
           id="g344"><g
             id="g346" /><g
             id="g358"><g
               clip-path="url(#clipPath350)"
               opacity="0.199997"
               id="g356"><g
                 transform="translate(119.3584,327.6338)"
                 id="g354"><path
                   d="m 0,0 c 1.303,-2.515 -0.283,-13.049 -4.989,-18.23 -0.313,4.576 -0.697,9.362 -1.202,14.241 z"
                   style="fill:#000000;fill-opacity:1;fill-rule:nonzero;stroke:none"
                   id="path352" /></g></g></g></g><g
           id="g360"
           transform="translate(133.157,363.1846)"><path
             d="m 0,0 13.447,-6.449 c -1.429,-3.807 -2.107,-7.767 1.877,-9.656 2.258,-1.072 3.288,-4.02 1.943,-6.261 -1.151,-1.92 -3.101,-3.592 -6.119,-3.893 -4.666,-0.467 -9.266,2.53 -11.942,5.346 -1.105,1.162 -0.022,2.519 0.121,4.137 C -0.168,-11.054 0.725,-5.064 0,0"
             style="fill:#ce5b51;fill-opacity:1;fill-rule:nonzero;stroke:none"
             id="path362" /></g><g
           id="g364"><g
             id="g366" /><g
             id="g378"><g
               clip-path="url(#clipPath370)"
               opacity="0.199997"
               id="g376"><g
                 transform="translate(139.3479,361.9004)"
                 id="g374"><path
                   d="M 0,0 7.251,-5.16 C 6.835,-6.256 6.489,-7.362 6.306,-8.43 3.329,-9.404 -1.401,-6.807 -1.479,-4.215 -1.518,-2.923 -0.303,-0.622 0,0"
                   style="fill:#000000;fill-opacity:1;fill-rule:nonzero;stroke:none"
                   id="path372" /></g></g></g></g><g
           id="g380"
           transform="translate(148.7727,384.9131)"><path
             d="M 0,0 C 2.564,-2.09 5.5,-11.433 1.731,-15.206 -3.833,-8.747 -4.46,0.968 0,0"
             style="fill:#1a2e35;fill-opacity:1;fill-rule:nonzero;stroke:none"
             id="path382" /></g><g
           id="g384"
           transform="translate(129.4355,374.0967)"><path
             d="m 0,0 c 1.016,-7.972 1.204,-12.693 5.521,-16.502 6.492,-5.73 16.144,-1.327 17.534,6.809 1.25,7.323 -0.62,19.13 -8.673,21.733 C 6.448,14.605 -1.016,7.972 0,0"
             style="fill:#ce5b51;fill-opacity:1;fill-rule:nonzero;stroke:none"
             id="path386" /></g><g
           id="g388"
           transform="translate(129.6921,367.2246)"><path
             d="m 0,0 c 3.776,-0.282 5.092,8.856 2.735,14.026 1.641,-0.68 6.313,-0.012 7.617,2.133 7.533,-2.145 10.352,-2.187 11.32,0.926 0.968,3.114 -10.899,5.85 -17.758,4.377 -6.86,-1.473 -4.84,-6.439 -4.84,-6.439 0,0 -11.615,-3.745 0.926,-15.023"
             style="fill:#1a2e35;fill-opacity:1;fill-rule:nonzero;stroke:none"
             id="path390" /></g><g
           id="g392"
           transform="translate(126.9346,366.6084)"><path
             d="M 0,0 C 1.149,-1.811 2.887,-2.932 4.435,-3.303 6.762,-3.86 7.568,-1.52 6.622,0.829 5.77,2.943 3.532,5.78 1.34,5.285 -0.82,4.797 -1.313,2.069 0,0"
             style="fill:#ce5b51;fill-opacity:1;fill-rule:nonzero;stroke:none"
             id="path394" /></g><g
           id="g396"
           transform="translate(140.0984,372.7617)"><path
             d="M 0,0 C 0.042,-0.651 0.423,-1.154 0.849,-1.123 1.276,-1.091 1.587,-0.537 1.544,0.115 1.502,0.768 1.122,1.271 0.695,1.238 0.269,1.207 -0.043,0.652 0,0"
             style="fill:#1a2e35;fill-opacity:1;fill-rule:nonzero;stroke:none"
             id="path398" /></g><g
           id="g400"
           transform="translate(148.9443,373.4785)"><path
             d="M 0,0 C 0.043,-0.652 0.423,-1.155 0.85,-1.123 1.276,-1.092 1.587,-0.537 1.545,0.115 1.502,0.767 1.122,1.27 0.695,1.238 0.269,1.207 -0.042,0.652 0,0"
             style="fill:#1a2e35;fill-opacity:1;fill-rule:nonzero;stroke:none"
             id="path402" /></g><g
           id="g404"
           transform="translate(147.5149,372.8115)"><path
             d="M 0,0 C 0,0 1.73,-3.651 3.482,-5.345 2.398,-6.507 0.403,-6.161 0.403,-6.161 Z"
             style="fill:#bb221f;fill-opacity:1;fill-rule:nonzero;stroke:none"
             id="path406" /></g><g
           id="g408"
           transform="translate(143.459,377.9229)"><path
             d="m 0,0 c 0.044,-0.047 0.076,-0.105 0.092,-0.171 0.05,-0.206 -0.078,-0.412 -0.285,-0.461 -2.076,-0.492 -3.382,0.706 -3.437,0.758 -0.155,0.145 -0.161,0.387 -0.014,0.54 0.146,0.153 0.389,0.16 0.543,0.017 0.043,-0.04 1.072,-0.964 2.728,-0.572 C -0.232,0.145 -0.092,0.098 0,0"
             style="fill:#1a2e35;fill-opacity:1;fill-rule:nonzero;stroke:none"
             id="path410" /></g><g
           id="g412"
           transform="translate(145.0784,376.0303)"><path
             d="m 0,0 c -0.056,0.031 -0.104,0.077 -0.139,0.136 -0.109,0.18 -0.049,0.416 0.134,0.525 1.833,1.092 3.438,0.34 3.506,0.307 C 3.692,0.876 3.771,0.647 3.677,0.457 3.583,0.268 3.353,0.187 3.163,0.279 3.11,0.304 1.851,0.877 0.389,0.005 0.265,-0.068 0.117,-0.065 0,0"
             style="fill:#1a2e35;fill-opacity:1;fill-rule:nonzero;stroke:none"
             id="path414" /></g><g
           id="g416"
           transform="translate(152.5718,379.6631)"><path
             d="M 0,0 C -0.119,-0.037 -0.253,-0.016 -0.355,0.069 -1.656,1.145 -2.983,0.755 -3.039,0.737 -3.241,0.675 -3.455,0.788 -3.516,0.99 -3.577,1.192 -3.465,1.407 -3.263,1.472 -3.19,1.493 -1.496,2.013 0.135,0.665 0.297,0.531 0.32,0.288 0.184,0.124 0.134,0.063 0.07,0.021 0,0"
             style="fill:#1a2e35;fill-opacity:1;fill-rule:nonzero;stroke:none"
             id="path418" /></g><g
           id="g420"
           transform="translate(196.1599,280.04)"><path
             d="m 0,0 v 0 c -0.436,0.807 -1.452,1.11 -2.259,0.674 l -12.233,-6.611 -5.782,10.699 c -0.436,0.805 -1.453,1.109 -2.259,0.674 -0.807,-0.437 -1.11,-1.453 -0.674,-2.259 l 5.782,-10.699 -42.157,-22.783 c -0.806,-0.435 -1.11,-1.452 -0.674,-2.258 0.436,-0.807 1.452,-1.11 2.259,-0.674 L -0.674,-2.259 C 0.133,-1.823 0.436,-0.807 0,0"
             style="fill:#1a2e35;fill-opacity:1;fill-rule:nonzero;stroke:none"
             id="path422" /></g><g
           id="g424"
           transform="translate(195.2644,223.8184)"><path
             d="m 0,0 c -19.979,15.002 -81.571,21.043 -60.291,48.427 l 32.006,0.299 c 0,0 45.043,-23.107 47.455,-47.268 2.51,-25.122 6.964,-64.693 6.964,-64.693 l -12.397,-4.402 c 0,0 -18.103,48.52 -13.737,67.637"
             style="fill:#007cff;fill-opacity:1;fill-rule:nonzero;stroke:none"
             id="path426" /></g><g
           id="g428"><g
             id="g430" /><g
             id="g442"><g
               clip-path="url(#clipPath434)"
               opacity="0.199997"
               id="g440"><g
                 transform="translate(136.075,258.4971)"
                 id="g438"><path
                   d="M 0,0 C -0.741,-1.612 -1.425,-3.3 -2.053,-5.062 2.925,-10.716 12.751,-15.066 23.383,-19.107 20.139,-13.304 12.873,-6.91 0,0"
                   style="fill:#000000;fill-opacity:1;fill-rule:nonzero;stroke:none"
                   id="path436" /></g></g></g></g><g
           id="g444"
           transform="translate(209.1323,151.7949)"><path
             d="M 0,0 12.817,3.302 C 13.6,3.506 14.49,3.533 15.266,3.183 19.745,1.163 22.61,1.762 27.035,2.038 32.34,2.37 31.145,-3.325 27.423,-4.295 21.265,-5.899 21.72,-5.548 16.47,-6.916 15.285,-7.226 12.826,-7.855 12.826,-7.855 l -2.084,1.271 -1.023,-2.029 c 0,0 -4.048,-0.988 -6.747,-1.646 -0.747,-0.182 -1.498,0.288 -1.61,1.047 z"
             style="fill:#1a2e35;fill-opacity:1;fill-rule:nonzero;stroke:none"
             id="path446" /></g><g
           id="g448"
           transform="translate(209.4622,150.5283)"><path
             d="M 0,0 C 0.188,0.089 14.615,4.128 14.615,4.128 L 12.38,15.22 -3.655,10.876 Z"
             style="fill:#1a2e35;fill-opacity:1;fill-rule:nonzero;stroke:none"
             id="path450" /></g><g
           id="g452"
           transform="translate(119.7693,190.1768)"><path
             d="m 0,0 c 0.606,36.438 -7.047,73.525 -2.476,81.664 l 37.12,0.524 c 0,0 -11.095,-60.748 -14.027,-85.019 -3.044,-25.237 -18.003,-90.86 -18.003,-90.86 l -11.969,-0.186 c 0,0 1.415,67.721 9.355,93.877"
             style="fill:#007cff;fill-opacity:1;fill-rule:nonzero;stroke:none"
             id="path454" /></g><g
           id="g456"
           transform="translate(109.9661,94.3672)"><path
             d="m 0,0 11.018,0.171 c 0.808,0.014 1.685,-0.171 2.371,-0.695 3.958,-3.024 4.422,-3.122 8.808,-3.901 5.259,-0.935 2.896,-6.184 -0.949,-6.245 -6.36,-0.1 -5.841,0.134 -11.263,0.049 -1.225,-0.02 -5.89,-0.049 -5.89,-0.049 L 3.237,-8.941 2.271,-10.67 H 0.72 c -0.753,0 -1.368,0.653 -1.32,1.402 z"
             style="fill:#1a2e35;fill-opacity:1;fill-rule:nonzero;stroke:none"
             id="path458" /></g><g
           id="g460"
           transform="translate(109.9233,93.0596)"><path
             d="M 0,0 C 0.187,0.042 13.848,-0.632 13.848,-0.632 L 14.756,11.853 -0.088,11.432 Z"
             style="fill:#1a2e35;fill-opacity:1;fill-rule:nonzero;stroke:none"
             id="path462" /></g><g
           id="g464"
           transform="translate(146.8042,348.2422)"><path
             d="m 0,0 c 0,0 3.436,-6.632 -0.509,-12.014 3.126,-0.022 6.549,-1.358 6.549,-1.358 0,0 2.786,6.747 -3.36,12.786 C 2.246,0.144 0,0 0,0"
             style="fill:#ffffff;fill-opacity:1;fill-rule:nonzero;stroke:none"
             id="path466" /></g><g
           id="g468"
           transform="translate(115.9319,268.0244)"><path
             d="m 0,0 c 17.748,-1.063 38.102,-1.389 50.829,0.001 0.141,0.015 0.269,0.11 0.35,0.277 0.797,1.635 1.188,4.446 1.097,6.79 C 52.262,7.429 52.043,7.699 51.793,7.689 34.995,7.037 18.302,7.071 0.753,7.695 0.555,7.702 0.371,7.533 0.298,7.268 -0.263,5.213 -0.561,2.982 -0.455,0.636 -0.439,0.29 -0.239,0.014 0,0"
             style="fill:#1a2e35;fill-opacity:1;fill-rule:nonzero;stroke:none"
             id="path470" /></g><g
           id="g472"><g
             id="g474" /><g
             id="g486"><g
               clip-path="url(#clipPath478)"
               opacity="0.199997"
               id="g484"><g
                 transform="translate(115.9319,268.0244)"
                 id="g482"><path
                   d="m 0,0 c 17.748,-1.063 38.102,-1.389 50.829,0.001 0.141,0.015 0.269,0.11 0.35,0.277 0.797,1.635 1.188,4.446 1.097,6.79 C 52.262,7.429 52.043,7.699 51.793,7.689 34.995,7.037 18.302,7.071 0.753,7.695 0.555,7.702 0.371,7.533 0.298,7.268 -0.263,5.213 -0.561,2.982 -0.455,0.636 -0.439,0.29 -0.239,0.014 0,0"
                   style="fill:#000000;fill-opacity:1;fill-rule:nonzero;stroke:none"
                   id="path480" /></g></g></g></g><g
           id="g488"
           transform="translate(143.5591,267.3984)"><path
             d="M 0,0 C 1.459,-0.131 3.818,-0.235 5.353,0.096 5.673,2.699 5.647,6.114 5.612,7.723 4.457,7.767 2.337,7.804 0.116,7.626 -0.039,4.747 -0.021,1.518 0,0 m 2.647,-2.125 c -1.921,0 -3.638,0.217 -3.759,0.232 l -0.851,0.111 -0.021,0.857 c -0.005,0.218 -0.128,5.384 0.156,9.535 l 0.057,0.838 0.835,0.088 c 3.775,0.4 7.437,0.148 7.592,0.136 L 7.547,9.608 7.583,8.716 C 7.593,8.479 7.816,2.854 7.242,-0.844 L 7.15,-1.435 6.587,-1.634 C 5.514,-2.013 4.027,-2.125 2.647,-2.125"
             style="fill:#ffffff;fill-opacity:1;fill-rule:nonzero;stroke:none"
             id="path490" /></g><g
           id="g492"
           transform="translate(126.9199,275.7383)"><path
             d="m 0,0 c 0,0 -0.289,-5.608 -0.695,-9.179 -0.792,-0.817 -2.268,-0.192 -2.268,-0.192 0,0 0.294,5.185 0.645,9.255 C -1.131,0.265 0,0 0,0"
             style="fill:#007cff;fill-opacity:1;fill-rule:nonzero;stroke:none"
             id="path494" /></g><g
           id="g496"
           transform="translate(163.5596,275.7383)"><path
             d="m 0,0 c 0,0 -0.289,-5.608 -0.695,-9.179 -0.792,-0.817 -2.268,-0.192 -2.268,-0.192 0,0 0.294,5.185 0.645,9.255 C -1.131,0.265 0,0 0,0"
             style="fill:#007cff;fill-opacity:1;fill-rule:nonzero;stroke:none"
             id="path498" /></g><g
           id="g500"
           transform="translate(151.9607,326.3701)"><path
             d="m 0,0 c 0.539,-7.23 5.149,-8.858 5.796,-8.845 0.646,0.014 5,1.826 4.462,9.057 C 8.419,0.161 6.675,0.958 4.975,2.164 3.561,0.783 1.922,0.011 0,0"
             style="fill:#007cff;fill-opacity:1;fill-rule:nonzero;stroke:none"
             id="path502" /></g><g
           id="g504"
           transform="translate(151.0046,385.5742)"><path
             d="m 0,0 c 5.14,-0.861 7.079,-3.257 -4.497,-4.659 -11.575,-1.403 -20.158,-0.339 -20.158,-0.339 0,0 15.433,5.041 24.655,4.998"
             style="fill:#1a2e35;fill-opacity:1;fill-rule:nonzero;stroke:none"
             id="path506" /></g><g
           id="g508"
           transform="translate(125.415,379.9727)"><path
             d="m 0,0 c 0,0 10.068,3.407 25.937,5.262 0.261,3.198 -2.237,5.535 -2.237,5.535 0,0 5.86,1.049 2.949,2.751 -1.996,1.167 -6.778,1.298 -12.064,4.699 C 12.418,16.267 6.473,13.052 2.415,12.64 1.409,10.921 -1.212,6.616 -5.462,4.953 -5.401,3.076 -1.175,2.59 -1.175,2.59 -1.175,2.59 -1.374,1.326 0,0"
             style="fill:#007cff;fill-opacity:1;fill-rule:nonzero;stroke:none"
             id="path510" /></g><g
           id="g512"><g
             id="g514" /><g
             id="g526"><g
               clip-path="url(#clipPath518)"
               opacity="0.800003"
               id="g524"><g
                 transform="translate(124.2397,382.5625)"
                 id="g522"><path
                   d="m 0,0 c 8.609,5.592 16.866,8.016 24.875,8.206 0,0 2.498,-2.336 2.238,-5.534 C 11.243,0.817 1.175,-2.59 1.175,-2.59 -0.199,-1.264 0,0 0,0"
                   style="fill:#1a2e35;fill-opacity:1;fill-rule:nonzero;stroke:none"
                   id="path520" /></g></g></g></g><g
           id="g528"
           transform="translate(139.5088,392.2949)"><path
             d="m 0,0 c 0.993,-4.917 4.47,-5.814 4.937,-5.775 0.468,0.04 3.472,1.482 2.479,6.4 C 6.088,0.504 4.758,0.967 3.426,1.712 2.516,0.703 1.392,0.098 0,0"
             style="fill:#ffffff;fill-opacity:1;fill-rule:nonzero;stroke:none"
             id="path530" /></g><g
           id="g532"
           transform="translate(145.3467,376.9297)"><path
             d="M 0,0 C 1.143,-0.16 3.012,-8.74 -2.946,-9.2 -7.953,-9.586 -9.513,-4.995 -9.514,-3.394 -9.515,-0.994 -1.613,0.227 0,0"
             style="fill:#1a2e35;fill-opacity:1;fill-rule:nonzero;stroke:none"
             id="path534" /></g><g
           id="g536"
           transform="translate(147.8745,377.0332)"><path
             d="m 0,0 c -0.71,-0.433 0.882,-9.571 5.044,-8.609 3.498,0.808 2.91,5.777 2.34,7.38 C 6.531,1.175 1.002,0.611 0,0"
             style="fill:#1a2e35;fill-opacity:1;fill-rule:nonzero;stroke:none"
             id="path538" /></g><g
           id="g540"><g
             id="g542" /><g
             id="g566"><g
               clip-path="url(#clipPath546)"
               opacity="0.199997"
               id="g564"><g
                 transform="translate(143.2441,376.8398)"
                 id="g550"><path
                   d="M 0,0 3.111,-5.666 C 2.848,-6.747 2.323,-7.737 1.394,-8.373 l -4.292,7.848 C -1.899,-0.283 -0.868,-0.102 0,0"
                   style="fill:#ffffff;fill-opacity:1;fill-rule:nonzero;stroke:none"
                   id="path548" /></g><g
                 transform="translate(139.0833,375.9609)"
                 id="g554"><path
                   d="M 0,0 4.404,-8.039 C 4.08,-8.141 3.717,-8.201 3.323,-8.231 3.07,-8.252 2.838,-8.262 2.606,-8.252 l -4.182,7.626 c 0.465,0.231 1,0.434 1.576,0.626"
                   style="fill:#ffffff;fill-opacity:1;fill-rule:nonzero;stroke:none"
                   id="path552" /></g><g
                 transform="translate(152.9097,377.3945)"
                 id="g558"><path
                   d="M 0,0 2.757,-5.029 C 2.697,-5.897 2.505,-6.767 2.07,-7.474 L -2.111,0.173 C -1.404,0.183 -0.667,0.132 0,0"
                   style="fill:#ffffff;fill-opacity:1;fill-rule:nonzero;stroke:none"
                   id="path556" /></g><g
                 transform="translate(154.4448,369.2344)"
                 id="g562"><path
                   d="M 0,0 C -0.242,-0.242 -0.535,-0.444 -0.889,-0.596 L -5.656,8.11 c 0.323,0.071 0.697,0.121 1.111,0.171 z"
                   style="fill:#ffffff;fill-opacity:1;fill-rule:nonzero;stroke:none"
                   id="path560" /></g></g></g></g><g
           id="g568"
           transform="translate(199.7756,316.3633)"><path
             d="m 0,0 -18.365,-7.703 -0.646,1.54 18.926,7.939 z m -68.134,-35.786 c -2.054,-0.862 -4.404,0.064 -5.354,2.055 l 0.614,0.685 0.311,0.13 c 0.27,-0.354 0.569,-0.688 0.929,-0.97 1.108,-0.868 2.488,-1.254 3.885,-1.085 l -0.133,1.102 c -1.104,-0.135 -2.193,0.169 -3.069,0.856 -0.207,0.162 -0.393,0.344 -0.563,0.537 l 5.514,2.313 c 0.028,-0.061 0.068,-0.112 0.094,-0.175 0.888,-2.116 -0.111,-4.56 -2.228,-5.448 M 9.271,5.7 C 9.786,5.916 8.928,7.961 8.414,7.745 l -69.935,-29.334 c -0.176,0.266 -0.511,0.387 -0.816,0.259 l -2.925,-1.228 c -0.305,-0.127 -0.453,-0.451 -0.387,-0.762 l -9.193,-3.857 c -2.058,-0.863 -3.898,-2.174 -5.387,-3.837 l -4.116,-4.599 c -0.158,-2.212 -2.025,-3.909 -4.241,-3.857 l -0.613,0.014 -21.139,-12.792 c -1.593,-0.964 -2.366,-2.862 -1.901,-4.666 0.909,-3.524 2.164,-6.351 3.68,-8.649 1.442,-2.187 4.532,-2.501 6.422,-0.685 l 21.403,20.565 c 0.903,0.869 1.467,2.032 1.589,3.279 l 0.259,2.639 4.618,5.161 c 1.315,-2.241 4.104,-3.236 6.563,-2.205 2.68,1.124 3.946,4.219 2.822,6.9 -0.026,0.062 -0.067,0.114 -0.095,0.175 l 1.712,0.717 c 0.171,-0.281 0.518,-0.411 0.831,-0.28 l 2.925,1.227 c 0.313,0.132 0.462,0.47 0.382,0.79 l 40.788,17.108 c 0.474,0.199 0.698,0.745 0.499,1.22 L 4.152,0.272 C 4.493,0.415 3.969,1.665 3.628,1.521 L 2.002,0.84 1.917,2.615 Z"
             style="fill:#007cff;fill-opacity:1;fill-rule:nonzero;stroke:none"
             id="path570" /></g><g
           id="g572"><g
             id="g574" /><g
             id="g586"><g
               clip-path="url(#clipPath578)"
               opacity="0.199997"
               id="g584"><g
                 transform="translate(199.7756,316.3633)"
                 id="g582"><path
                   d="m 0,0 -18.365,-7.703 -0.646,1.54 18.926,7.939 z m -68.134,-35.786 c -2.054,-0.862 -4.404,0.064 -5.354,2.055 l 0.614,0.685 0.311,0.13 c 0.27,-0.354 0.569,-0.688 0.929,-0.97 1.108,-0.868 2.488,-1.254 3.885,-1.085 l -0.133,1.102 c -1.104,-0.135 -2.193,0.169 -3.069,0.856 -0.207,0.162 -0.393,0.344 -0.563,0.537 l 5.514,2.313 c 0.028,-0.061 0.068,-0.112 0.094,-0.175 0.888,-2.116 -0.111,-4.56 -2.228,-5.448 M 9.271,5.7 C 9.786,5.916 8.928,7.961 8.414,7.745 l -69.935,-29.334 c -0.176,0.266 -0.511,0.387 -0.816,0.259 l -2.925,-1.228 c -0.305,-0.127 -0.453,-0.451 -0.387,-0.762 l -9.193,-3.857 c -2.058,-0.863 -3.898,-2.174 -5.387,-3.837 l -4.116,-4.599 c -0.158,-2.212 -2.025,-3.909 -4.241,-3.857 l -0.613,0.014 -21.139,-12.792 c -1.593,-0.964 -2.366,-2.862 -1.901,-4.666 0.909,-3.524 2.164,-6.351 3.68,-8.649 1.442,-2.187 4.532,-2.501 6.422,-0.685 l 21.403,20.565 c 0.903,0.869 1.467,2.032 1.589,3.279 l 0.259,2.639 4.618,5.161 c 1.315,-2.241 4.104,-3.236 6.563,-2.205 2.68,1.124 3.946,4.219 2.822,6.9 -0.026,0.062 -0.067,0.114 -0.095,0.175 l 1.712,0.717 c 0.171,-0.281 0.518,-0.411 0.831,-0.28 l 2.925,1.227 c 0.313,0.132 0.462,0.47 0.382,0.79 l 40.788,17.108 c 0.474,0.199 0.698,0.745 0.499,1.22 L 4.152,0.272 C 4.493,0.415 3.969,1.665 3.628,1.521 L 2.002,0.84 1.917,2.615 Z"
                   style="fill:#000000;fill-opacity:1;fill-rule:nonzero;stroke:none"
                   id="path580" /></g></g></g></g><g
           id="g588"
           transform="translate(182.0664,310.3711)"><path
             d="m 0,0 -19.375,-8.127 c -0.672,-0.281 -1.005,-1.039 -0.758,-1.725 l 0.793,-2.2 c 0.265,-0.737 1.093,-1.1 1.815,-0.798 l 19.376,8.127 c 0.671,0.282 1.004,1.04 0.757,1.725 l -0.793,2.2 C 1.55,-0.061 0.722,0.303 0,0"
             style="fill:#007cff;fill-opacity:1;fill-rule:nonzero;stroke:none"
             id="path590" /></g><g
           id="g592"
           transform="translate(194.4021,317.9453)"><path
             d="M 0,0 0.667,0.181 C 2.396,0.65 4.243,0.092 5.421,-1.259 L 6.017,-1.94 C 6.702,-2.726 6.414,-3.952 5.45,-4.35 l -6.591,-2.716 c -0.79,-0.326 -1.693,0.062 -2.001,0.859 -1,2.592 0.461,5.479 3.142,6.207"
             style="fill:#ce5b51;fill-opacity:1;fill-rule:nonzero;stroke:none"
             id="path594" /></g><g
           id="g596"
           transform="translate(124.5996,331.7461)"><path
             d="m 0,0 -0.501,-0.596 -0.579,-0.71 -1.183,-1.471 c -0.781,-1.008 -1.57,-2.026 -2.34,-3.064 -1.542,-2.078 -3.032,-4.218 -4.466,-6.394 -1.469,-2.16 -2.787,-4.414 -4.148,-6.651 -1.302,-2.265 -2.559,-4.562 -3.748,-6.894 l -0.882,-1.756 -0.216,-0.428 c -0.021,-0.049 -0.046,-0.097 -0.073,-0.143 -0.064,-0.08 -0.113,-0.209 -0.163,-0.347 -0.207,-0.537 -0.397,-1.365 -0.46,-2.327 -0.127,-1.939 0.117,-4.339 0.575,-6.763 0.893,-4.873 2.578,-10.096 4.258,-15.065 l 0.064,-0.189 c 0.664,-1.962 -0.389,-4.091 -2.352,-4.755 -1.544,-0.521 -3.194,0.025 -4.15,1.235 -1.898,2.412 -3.46,4.799 -4.954,7.383 -1.477,2.57 -2.807,5.256 -3.924,8.155 -1.091,2.91 -2.044,5.99 -2.342,9.62 -0.143,1.812 -0.15,3.786 0.315,5.949 0.112,0.539 0.242,1.082 0.439,1.649 l 0.281,0.835 0.203,0.528 0.802,2.06 c 2.159,5.492 4.805,10.782 7.845,15.846 1.531,2.527 3.136,5.013 4.898,7.41 0.88,1.2 1.779,2.393 2.73,3.56 0.485,0.583 0.951,1.172 1.467,1.75 l 0.777,0.875 0.887,0.96 c 2.808,3.04 7.548,3.227 10.588,0.419 C 2.597,7.956 2.862,3.413 0.31,0.368 Z"
             style="fill:#1a2e35;fill-opacity:1;fill-rule:nonzero;stroke:none"
             id="path598" /></g><g
           id="g600"
           transform="translate(132.4275,343.9111)"><path
             d="m 0,0 c 2.006,0.71 -0.542,2.854 -0.542,2.854 0,0 -10.603,-0.326 -16.909,-1.996 -0.942,-0.904 0.145,-1.974 0.145,-1.974 0,0 11.352,-0.991 17.306,1.116"
             style="fill:#007cff;fill-opacity:1;fill-rule:nonzero;stroke:none"
             id="path602" /></g><g
           id="g604"><g
             id="g606" /><g
             id="g618"><g
               clip-path="url(#clipPath610)"
               opacity="0.199997"
               id="g616"><g
                 transform="translate(132.2737,346.9639)"
                 id="g614"><path
                   d="m 0,0 c 0,0 1.565,-5.914 8.711,-10.745 -3.127,-0.023 -7.541,-3.12 -7.541,-3.12 0,0 -4.158,5.229 -2.689,13.422 C -1.085,0.286 0,0 0,0"
                   style="fill:#000000;fill-opacity:1;fill-rule:nonzero;stroke:none"
                   id="path612" /></g></g></g></g><g
           id="g620"
           transform="translate(132.4812,348.0352)"><path
             d="m 0,0 c 0,0 1.858,-6.407 8.503,-11.816 -3.126,-0.023 -7.787,-1.557 -7.787,-1.557 0,0 -3.911,3.666 -2.443,11.858 C -1.292,-0.785 0,0 0,0"
             style="fill:#ffffff;fill-opacity:1;fill-rule:nonzero;stroke:none"
             id="path622" /></g><g
           id="g624"
           transform="translate(109.615,279.5928)"><path
             d="m 0,0 6.219,-5.35 -8.249,-5.362 c 0,0 -5.043,5.527 -2.539,8.682 z"
             style="fill:#ce5b51;fill-opacity:1;fill-rule:nonzero;stroke:none"
             id="path626" /></g><g
           id="g628"
           transform="translate(104.1875,275.083)"><path
             d="M 0,0 C 0,0 -1.292,1.023 -1.687,2.199 0.292,4.25 4.292,5.937 6.104,6.396 7.208,5.354 7.25,3.198 7.25,3.198 7.25,3.198 1.979,2.292 0,0"
             style="fill:#ffffff;fill-opacity:1;fill-rule:nonzero;stroke:none"
             id="path630" /></g><g
           id="g632"
           transform="translate(116.5386,265.751)"><path
             d="m 0,0 -3.208,-1.392 c -1.277,-0.553 -2.767,-0.101 -3.521,1.069 L -8.953,3.13 -0.705,8.492 1.452,3.794 C 2.117,2.346 1.462,0.634 0,0"
             style="fill:#ce5b51;fill-opacity:1;fill-rule:nonzero;stroke:none"
             id="path634" /></g><g
           id="g636"
           transform="translate(141.5139,363.9707)"><path
             d="M 0,0 C 0.001,0.001 0.003,0.002 0.005,0.003 3.446,2.125 6.479,0.738 6.606,0.678 6.732,0.618 6.785,0.468 6.726,0.342 6.667,0.216 6.517,0.162 6.391,0.222 6.362,0.234 3.47,1.547 0.27,-0.427 0.151,-0.5 -0.005,-0.463 -0.078,-0.345 -0.15,-0.228 -0.115,-0.074 0,0"
             style="fill:#1a2e35;fill-opacity:1;fill-rule:nonzero;stroke:none"
             id="path638" /></g><g
           id="g640"
           transform="translate(125.1531,326.4863)"><path
             d="M 0,0 13.484,0.515 13.437,1.604 -0.047,1.089 Z"
             style="fill:#ffffff;fill-opacity:1;fill-rule:nonzero;stroke:none"
             id="path642" /></g></g></g><g
       id="g644"
       transform="translate(241.8855,82.542)"><path
         d="M 0,0 H -26.187 L -7.153,151.175 H 19.034 Z"
         style="fill:#007cff;fill-opacity:1;fill-rule:nonzero;stroke:none"
         id="path646" /></g><g
       id="g648"><g
         id="g650"
         clip-path="url(#clipPath654)"><g
           id="g656"><g
             id="g658" /><g
             id="g670"><g
               clip-path="url(#clipPath662)"
               opacity="0.399994"
               id="g668"><g
                 transform="translate(241.8855,82.542)"
                 id="g666"><path
                   d="M 0,0 H -26.187 L -7.153,151.175 H 19.034 Z"
                   style="fill:#000000;fill-opacity:1;fill-rule:nonzero;stroke:none"
                   id="path664" /></g></g></g></g></g></g><g
       id="g672"
       transform="translate(213.3569,82.542)"><path
         d="M 0,0 H 2.342 L 21.375,151.175 H 19.034 Z"
         style="fill:#1a2e35;fill-opacity:1;fill-rule:nonzero;stroke:none"
         id="path674" /></g><g
       id="g676"
       transform="translate(339.5339,82.542)"><path
         d="M 0,0 H -26.187 L -7.153,151.175 H 19.034 Z"
         style="fill:#007cff;fill-opacity:1;fill-rule:nonzero;stroke:none"
         id="path678" /></g><g
       id="g680"><g
         id="g682"
         clip-path="url(#clipPath686)"><g
           id="g688"><g
             id="g690" /><g
             id="g702"><g
               clip-path="url(#clipPath694)"
               opacity="0.399994"
               id="g700"><g
                 transform="translate(339.5339,82.542)"
                 id="g698"><path
                   d="M 0,0 H -26.187 L -7.153,151.175 H 19.034 Z"
                   style="fill:#000000;fill-opacity:1;fill-rule:nonzero;stroke:none"
                   id="path696" /></g></g></g></g></g></g><g
       id="g704"
       transform="translate(311.0054,82.542)"><path
         d="M 0,0 H 2.342 L 21.375,151.175 H 19.034 Z"
         style="fill:#1a2e35;fill-opacity:1;fill-rule:nonzero;stroke:none"
         id="path706" /></g><g
       id="g708"
       transform="translate(266.1211,100.5322)"><path
         d="M 0,0 H 94.96 L 90.817,32.905 H -4.143 Z"
         style="fill:#007cff;fill-opacity:1;fill-rule:nonzero;stroke:none"
         id="path710" /></g><g
       id="g712"
       transform="translate(266.1211,100.5322)"><path
         d="m 0,0 h -1.555 l -4.143,32.905 h 1.555 z"
         style="fill:#1a2e35;fill-opacity:1;fill-rule:nonzero;stroke:none"
         id="path714" /></g><g
       id="g716"
       transform="translate(355.8472,132)"><path
         d="M 0,0 3.781,-30.032 H -1.83 L -16.896,0 Z"
         style="fill:#ffffff;fill-opacity:1;fill-rule:nonzero;stroke:none"
         id="path718" /></g><g
       id="g720"
       transform="translate(329.384,132)"><path
         d="M 0,0 15.066,-30.032 H -5.538 L -20.604,0 Z"
         style="fill:#ffffff;fill-opacity:1;fill-rule:nonzero;stroke:none"
         id="path722" /></g><g
       id="g724"
       transform="translate(299.2124,132)"><path
         d="M 0,0 15.066,-30.032 H -5.538 L -20.604,0 Z"
         style="fill:#ffffff;fill-opacity:1;fill-rule:nonzero;stroke:none"
         id="path726" /></g><g
       id="g728"
       transform="translate(269.0471,132)"><path
         d="M 0,0 15.066,-30.032 H -1.836 L -5.617,0 Z"
         style="fill:#ffffff;fill-opacity:1;fill-rule:nonzero;stroke:none"
         id="path730" /></g><g
       id="g732"
       transform="translate(351.9905,82.542)"><path
         d="M 0,0 H 26.187 L 7.153,151.175 h -26.187 z"
         style="fill:#007cff;fill-opacity:1;fill-rule:nonzero;stroke:none"
         id="path734" /></g><g
       id="g736"><g
         id="g738"
         clip-path="url(#clipPath742)"><g
           id="g744"><g
             id="g746" /><g
             id="g758"><g
               clip-path="url(#clipPath750)"
               opacity="0.199997"
               id="g756"><g
                 transform="translate(341.436,166.3682)"
                 id="g754"><path
                   d="M 0,0 27.55,-10.824 19.646,51.955 H -6.542 Z"
                   style="fill:#000000;fill-opacity:1;fill-rule:nonzero;stroke:none"
                   id="path752" /></g></g></g></g></g></g><g
       id="g760"
       transform="translate(351.9905,82.542)"><path
         d="m 0,0 h -2.342 l -19.034,151.175 h 2.342 z"
         style="fill:#1a2e35;fill-opacity:1;fill-rule:nonzero;stroke:none"
         id="path762" /></g><g
       id="g764"
       transform="translate(254.3418,82.542)"><path
         d="M 0,0 H 26.187 L 7.153,151.175 h -26.187 z"
         style="fill:#007cff;fill-opacity:1;fill-rule:nonzero;stroke:none"
         id="path766" /></g><g
       id="g768"><g
         id="g770"
         clip-path="url(#clipPath774)"><g
           id="g776"><g
             id="g778" /><g
             id="g790"><g
               clip-path="url(#clipPath782)"
               opacity="0.199997"
               id="g788"><g
                 transform="translate(243.7876,166.3682)"
                 id="g786"><path
                   d="M 0,0 27.55,-10.824 19.646,51.955 H -6.542 Z"
                   style="fill:#000000;fill-opacity:1;fill-rule:nonzero;stroke:none"
                   id="path784" /></g></g></g></g></g></g><g
       id="g792"
       transform="translate(254.3418,82.542)"><path
         d="m 0,0 h -2.341 l -19.034,151.175 h 2.341 z"
         style="fill:#1a2e35;fill-opacity:1;fill-rule:nonzero;stroke:none"
         id="path794" /></g><g
       id="g796"
       transform="translate(233.3303,173.3437)"><path
         d="m 0,0 h 142.993 l -6.238,49.55 H -6.239 Z"
         style="fill:#007cff;fill-opacity:1;fill-rule:nonzero;stroke:none"
         id="path798" /></g><g
       id="g800"
       transform="translate(233.3303,173.3437)"><path
         d="M 0,0 H -2.342 L -8.58,49.55 h 2.341 z"
         style="fill:#1a2e35;fill-opacity:1;fill-rule:nonzero;stroke:none"
         id="path802" /></g><g
       id="g804"
       transform="translate(368.4419,220.7285)"><path
         d="M 0,0 5.694,-45.223 H -2.755 L -25.442,0 Z"
         style="fill:#ffffff;fill-opacity:1;fill-rule:nonzero;stroke:none"
         id="path806" /></g><g
       id="g808"
       transform="translate(328.593,220.7285)"><path
         d="M 0,0 22.687,-45.223 H -8.339 L -31.026,0 Z"
         style="fill:#ffffff;fill-opacity:1;fill-rule:nonzero;stroke:none"
         id="path810" /></g><g
       id="g812"
       transform="translate(283.1599,220.7285)"><path
         d="M 0,0 22.687,-45.223 H -8.339 L -31.027,0 Z"
         style="fill:#ffffff;fill-opacity:1;fill-rule:nonzero;stroke:none"
         id="path814" /></g><g
       id="g816"
       transform="translate(237.7361,220.7285)"><path
         d="M 0,0 22.687,-45.223 H -2.764 L -8.458,0 Z"
         style="fill:#ffffff;fill-opacity:1;fill-rule:nonzero;stroke:none"
         id="path818" /></g></g></svg>
